<svg xmlns="http://www.w3.org/2000/svg" viewBox="0 0 71.68 77.19"><defs><style>.cls-1{fill:#6d6e70;}</style></defs><title>form</title><g id="Layer_2" data-name="Layer 2"><g id="Layer_1-2" data-name="Layer 1"><path class="cls-1" d="M71.68,32.86a8.21,8.21,0,0,1-2.33,5.86q-13,13-26,26a3.28,3.28,0,0,1-1.73.89l-9.34,1.94a2.77,2.77,0,0,1-3.47-3.49c.51-2.46,1.13-4.91,1.52-7.4a9.06,9.06,0,0,1,2.84-5.2c8.07-8,16.06-16,24.08-24A8.43,8.43,0,0,1,68.18,26.3,8,8,0,0,1,71.68,32.86Z"/><path class="cls-1" d="M55.17,60.71c-2.69,2.69-5.21,5.18-7.7,7.71A9,9,0,0,1,42.73,71c-3.18.64-6.33,1.37-9.51,2a8.22,8.22,0,0,1-9.8-9.89c.62-3.18,1.31-6.34,2-9.51a8.74,8.74,0,0,1,2.45-4.54Q40.58,36.35,53.29,23.62a13.94,13.94,0,0,1,1.34-1.21,1.18,1.18,0,0,0,.51-1.08q0-6.24,0-12.48C55.13,3.51,51.64,0,46.31,0H8.85C3.51,0,0,3.5,0,8.82V68.33c0,5.37,3.5,8.85,8.9,8.85H33.36c4.54,0,9.07,0,13.61,0a8.09,8.09,0,0,0,8-6.92C55.41,67.17,55,64.06,55.17,60.71ZM13.84,11H41.29a2.75,2.75,0,0,1,1.62,5,2.77,2.77,0,0,1-1.62.5H13.84a2.75,2.75,0,1,1,0-5.5Zm-.73,11.11a3.07,3.07,0,0,1,.67-.08H41.32a2.75,2.75,0,0,1,.62,5.43,4.34,4.34,0,0,1-1,.07c-4.45,0-8.9,0-13.34,0s-9.18,0-13.77,0a2.75,2.75,0,0,1-.7-5.42ZM19.3,38.59H14a2.76,2.76,0,1,1,0-5.51H24.62a2.76,2.76,0,1,1,0,5.51Z"/></g></g></svg>