<svg xmlns="http://www.w3.org/2000/svg" viewBox="0 0 78.65 78.65"><defs><style>.cls-1{fill:#6d6e70;}</style></defs><title>jenis</title><g id="Layer_2" data-name="Layer 2"><g id="Layer_1-2" data-name="Layer 1"><path class="cls-1" d="M39.32,0A39.33,39.33,0,1,0,78.65,39.32,39.33,39.33,0,0,0,39.32,0ZM22.78,23.57A5.76,5.76,0,0,1,24,23.46H54.69a3.3,3.3,0,0,1,3.49,2.2,3.16,3.16,0,0,1-3.12,4.15c-3.09,0-6.19,0-9.28,0H39.32c-5.2,0-10.4,0-15.59,0a3.18,3.18,0,0,1-3.34-2.48A3.14,3.14,0,0,1,22.78,23.57ZM55.87,55.08a7.27,7.27,0,0,1-1.32.1H23.88a3.28,3.28,0,0,1-3.39-2.13,3.16,3.16,0,0,1,2.72-4.21h.59q15.52,0,31,0a3.18,3.18,0,0,1,3.41,2.47A3.14,3.14,0,0,1,55.87,55.08ZM55.5,42.45l-.74,0H23.87a3.17,3.17,0,0,1-3.44-2.33,3.09,3.09,0,0,1,2.79-3.95c1.85-.07,3.71,0,5.57,0H54.85a3.17,3.17,0,0,1,3.41,2.47A3.13,3.13,0,0,1,55.5,42.45Z"/></g></g></svg>