<svg xmlns="http://www.w3.org/2000/svg" viewBox="0 0 79.17 79.17"><defs><style>.cls-1{fill:#6d6e70;}.cls-2{fill:#fefefe;}</style></defs><title>login</title><g id="Layer_2" data-name="Layer 2"><g id="Layer_1-2" data-name="Layer 1"><circle class="cls-1" cx="39.58" cy="39.58" r="39.58"/><path class="cls-2" d="M75.23,39.6A35.65,35.65,0,1,1,39.62,3.93,35.65,35.65,0,0,1,75.23,39.6Z"/><path class="cls-1" d="M69.78,30.32A31.59,31.59,0,0,0,8.67,33,31.32,31.32,0,0,0,21.28,65.21c0-2.47-.06-4.84,0-7.21A10.48,10.48,0,0,1,31.64,47.71q8.09-.14,16.17,0a10.51,10.51,0,0,1,10.06,10c.06,2.29,0,4.58,0,6.87,0,.19-.12.42.1.57A31.4,31.4,0,0,0,69.78,30.32ZM39.55,41.11a10.94,10.94,0,1,1,11-11A11,11,0,0,1,39.55,41.11Z"/></g></g></svg>