<svg xmlns="http://www.w3.org/2000/svg" viewBox="0 0 89.24 79.25"><defs><style>.cls-1{fill:#6d6e70;}</style></defs><title>payment</title><g id="Layer_2" data-name="Layer 2"><g id="Layer_1-2" data-name="Layer 1"><path class="cls-1" d="M89.24,32.85a9.94,9.94,0,0,1-2.8,3.77Q80,43,73.57,49.49a6.09,6.09,0,0,0-.57.71c-.35-.34-.23-.64-.23-.9,0-3.37.14-6.74-.07-10.1a3.9,3.9,0,0,1,1.39-3.41c3.38-3.27,6.68-6.62,10-10,.44-.44.69-.53,1.13,0a21.52,21.52,0,0,0,1.84,1.86,6.71,6.71,0,0,1,2.19,3.44Z"/><path class="cls-1" d="M24,31.22a4.82,4.82,0,0,0,.7-.48Q39.18,16.31,53.62,1.86c2.47-2.47,5.13-2.48,7.6,0,3.37,3.36,6.72,6.74,10.12,10.08.53.53.47.78,0,1.27C65.36,19.11,59.43,25.06,53.5,31a1.34,1.34,0,0,1-1,.5c-9.29,0-18.58,0-27.87,0l-.41,0Z"/><path class="cls-1" d="M61.1,31.48c4.95-4.95,9.73-9.72,14.5-14.5.29-.29.45-.33.75,0,1.27,1.31,2.57,2.6,3.88,3.88.3.29.3.45,0,.75q-5.37,5.34-10.72,10.7c-.18.18-.33.38-.65.18a9,9,0,0,0-5.12-1C62.93,31.49,62.13,31.48,61.1,31.48Z"/><path class="cls-1" d="M52.29,48.41a2.7,2.7,0,1,0,0,5.39,2.7,2.7,0,1,0,0-5.39Z"/><path class="cls-1" d="M64.5,37.21h-62C.61,37.21,0,37.82,0,39.76V76.62c0,2.1.53,2.63,2.62,2.63H64.48c2,0,2.56-.58,2.56-2.53V39.78C67,37.84,66.41,37.21,64.5,37.21ZM11.44,73.48c-.54.06-1.1,0-1.65.08v0c-.46,0-.93,0-1.39,0a2.84,2.84,0,0,1,0-5.67,22.49,22.49,0,0,1,3,0,2.73,2.73,0,0,1,2.51,2.83A2.79,2.79,0,0,1,11.44,73.48Zm13.94,0c-.54,0-1.1,0-1.65,0h0a14.42,14.42,0,0,1-1.47,0,2.73,2.73,0,0,1-2.57-2.87,2.69,2.69,0,0,1,2.56-2.77,21.79,21.79,0,0,1,3.13,0,2.71,2.71,0,0,1,2.49,2.85A2.75,2.75,0,0,1,25.38,73.48Zm7.19-12.9a2.56,2.56,0,0,1-2,1.72,6.19,6.19,0,0,1-1.29.11H9c-2.05,0-3.26-1.14-3.23-3a2.73,2.73,0,0,1,2.58-2.76,4.41,4.41,0,0,1,.52,0c6.94,0,13.87,0,20.81,0C32,56.69,33.34,58.55,32.57,60.58Zm6.68,12.91a16.37,16.37,0,0,1-3.13,0,2.83,2.83,0,0,1,0-5.62,15.31,15.31,0,0,1,1.66,0h0a14.4,14.4,0,0,1,1.47,0,2.83,2.83,0,0,1,0,5.64Zm13.94,0a15.59,15.59,0,0,1-3.13,0,2.76,2.76,0,0,1-2.46-2.8A2.73,2.73,0,0,1,50,67.87a14.42,14.42,0,0,1,1.74,0v0c.46,0,.93,0,1.39,0a2.83,2.83,0,0,1,0,5.65Zm-1-14A8.32,8.32,0,0,1,43.83,51a8.44,8.44,0,0,1,16.87.08A8.29,8.29,0,0,1,52.19,59.51Z"/></g></g></svg>