<svg xmlns="http://www.w3.org/2000/svg" viewBox="0 0 49.56 66.03"><defs><style>.cls-1{fill:#6d6e70;}</style></defs><title>verifikasi</title><g id="Layer_2" data-name="Layer 2"><g id="Layer_1-2" data-name="Layer 1"><path class="cls-1" d="M49.54,63.07a5.3,5.3,0,0,0-2.24-4.16,1.08,1.08,0,0,1-.51-1A55.12,55.12,0,0,0,46.57,50a18.79,18.79,0,0,0-5.34-10.75c-2-2-4.18-3.84-6.3-5.73-.5-.44-.46-.65,0-1s1.1-1,1.64-1.46c2.12-2,4.48-3.76,6.25-6.12A19,19,0,0,0,46.72,14.6c.15-2.19.05-4.38.09-6.58,0-.24-.08-.49.21-.68A5.78,5.78,0,0,0,49.56,1.9C49.5.44,49.1,0,47.61,0H1.51A1.42,1.42,0,0,0,0,1.52q0,.71,0,1.41A5.32,5.32,0,0,0,2.29,7.15a1,1,0,0,1,.48.94A59.63,59.63,0,0,0,3,16,18.77,18.77,0,0,0,8.32,26.76c2,2.07,4.28,3.92,6.43,5.87.33.29.42.45,0,.76-.56.44-1.08.93-1.59,1.41C11,36.86,8.56,38.66,6.73,41.09A19,19,0,0,0,2.85,51.41c-.14,2-.09,4-.07,6.05A1.81,1.81,0,0,1,2,59.12a5.69,5.69,0,0,0-2,5.05,1.83,1.83,0,0,0,1,1.86H48.51a1.7,1.7,0,0,0,1-1.86C49.52,63.8,49.56,63.43,49.54,63.07Zm-8.71-5.29c-.79,0-1.59,0-2.38,0a1,1,0,0,1-1-.47q-5.58-7.49-11.19-15l-.24-.31a1.44,1.44,0,0,0-2.54,0q-3.45,4.58-6.88,9.17Q14.32,54.31,12,57.41a.78.78,0,0,1-.74.38c-.85,0-1.71,0-2.57,0-.22,0-.43,0-.42-.31a55.65,55.65,0,0,1,.21-6.95A13.73,13.73,0,0,1,13,42.36l7.72-6.94c1.75-1.57,1.75-3.23,0-4.81-2.76-2.49-5.56-4.94-8.26-7.49A13.42,13.42,0,0,1,8.28,13.2c0-1.44,0-2.88,0-4.32,0-.49.1-.64.62-.64q8,0,15.93,0t15.86,0c.49,0,.65.11.64.62,0,1.38,0,2.75,0,4.13A13.81,13.81,0,0,1,36.52,23.7c-2.62,2.36-5.24,4.71-7.85,7.08a2.8,2.8,0,0,0-.92,3.29,3.9,3.9,0,0,0,1.08,1.34c2.78,2.51,5.6,5,8.31,7.54a13.22,13.22,0,0,1,4.14,9.55c0,1.61,0,3.22,0,4.83C41.31,57.71,41.18,57.8,40.83,57.78Z"/></g></g></svg>