<svg xmlns="http://www.w3.org/2000/svg" xmlns:xlink="http://www.w3.org/1999/xlink" viewBox="0 0 101.23 105.51"><defs><style>.cls-1{fill:none;stroke-miterlimit:10;stroke-width:1.39px;stroke:url(#Nueva_muestra_de_degradado_2);}.cls-2{fill:url(#Nueva_muestra_de_degradado_2-2);}.cls-3{fill:#fff;}</style><linearGradient id="Nueva_muestra_de_degradado_2" x1="-44.83" y1="566.29" x2="45.64" y2="566.29" gradientTransform="translate(6.59 -508.54) rotate(-5.01)" gradientUnits="userSpaceOnUse"><stop offset="0" stop-color="#3e5c9a"/><stop offset="1" stop-color="#3e399a"/></linearGradient><linearGradient id="Nueva_muestra_de_degradado_2-2" x1="0" y1="46.37" x2="92.75" y2="46.37" gradientTransform="matrix(1, 0, 0, 1, 0, 0)" xlink:href="#Nueva_muestra_de_degradado_2"/></defs><title>facebook</title><g id="Layer_2" data-name="Layer 2"><g id="Layer_1-2" data-name="Layer 1"><path class="cls-1" d="M87,33.25c-7.34-3.42-6.54-5.13-13.88-8.55S64.94,23,57.6,19.56,51.05,14.42,43.7,11c-5.23-2.44-10.83-1-15.74.38-5.17,1.41-10.76,3.16-13.85,7.54-2.93,4.16-2.82,9.84-2.32,15.58.71,8.07-1.17,8.24-.46,16.31s2.59,7.91,3.29,16S13.45,75,14.16,83.1c.51,5.75,4.59,9.86,8.2,13.44,3.81,3.77,8.12,7.74,13.45,8.23,5.07.46,9.93-2.48,14.66-5.79,6.63-4.64,7.71-3.1,14.35-7.75S70.38,85,77,80.39s7.72-3.11,14.36-7.76c4.73-3.31,6.24-8.9,7.54-13.82,1.37-5.18,2.65-10.9.4-15.76-2.13-4.62-7.11-7.37-12.34-9.8-7.34-3.42-6.54-5.13-13.88-8.55S64.94,23,57.6,19.56,51.05,14.42,43.7,11c-5.23-2.44-10.83-1-15.74.38-5.17,1.41-10.76,3.16-13.85,7.54-2.93,4.16-2.82,9.84-2.32,15.58.71,8.07-1.17,8.24-.46,16.31s2.59,7.91,3.29,16S13.45,75,14.16,83.1c.51,5.75,4.59,9.86,8.2,13.44,3.81,3.77,8.12,7.74,13.45,8.23,5.07.46,9.93-2.48,14.66-5.79,6.63-4.64,7.71-3.1,14.35-7.75S70.38,85,77,80.39s7.72-3.11,14.36-7.76c4.73-3.31,6.24-8.9,7.54-13.82,1.37-5.18,2.65-10.9.4-15.76C97.18,38.43,92.2,35.68,87,33.25Z"/><path class="cls-2" d="M91.94,63.93,79.36,17A22.88,22.88,0,0,0,41.09,6.71L6.71,41.09A22.88,22.88,0,0,0,17,79.36l47,12.58a22.87,22.87,0,0,0,28-28L79.36,17A22.88,22.88,0,0,0,41.09,6.71L6.71,41.09A22.88,22.88,0,0,0,17,79.36l47,12.58A22.87,22.87,0,0,0,91.94,63.93Z"/><path class="cls-3" d="M42.39,68.21h8.8v-22h6.14L58,38.81H51.19v-4.2c0-1.74.35-2.42,2-2.42H58V24.53H51.89c-6.55,0-9.5,2.89-9.5,8.4v5.88H37.82v7.47h4.57Z"/></g></g></svg>