<svg xmlns="http://www.w3.org/2000/svg" xmlns:xlink="http://www.w3.org/1999/xlink" viewBox="0 0 103.35 109.64"><defs><style>.cls-1{fill:none;stroke-miterlimit:10;stroke-width:1.45px;stroke:url(#Nueva_muestra_de_degradado_23);}.cls-2{fill:url(#Nueva_muestra_de_degradado_23-3);}.cls-3{fill:#fff;}</style><linearGradient id="Nueva_muestra_de_degradado_23" x1="-46.45" y1="581.37" x2="47.56" y2="581.37" gradientTransform="translate(5.49 -521.37) rotate(-5.01)" gradientUnits="userSpaceOnUse"><stop offset="0" stop-color="#f5ec53"/><stop offset="0.24" stop-color="#e48244"/><stop offset="0.4" stop-color="#d15767"/><stop offset="0.49" stop-color="#c84278"/><stop offset="1" stop-color="#192cfa"/></linearGradient><linearGradient id="Nueva_muestra_de_degradado_23-3" x1="0" y1="48.19" x2="96.38" y2="48.19" gradientTransform="matrix(1, 0, 0, 1, 0, 0)" xlink:href="#Nueva_muestra_de_degradado_23"/></defs><title>instagram</title><g id="Layer_2" data-name="Layer 2"><g id="Layer_1-2" data-name="Layer 1"><path class="cls-1" d="M88.54,34.55C80.91,31,81.73,29.22,74.1,25.66S65.64,23.88,58,20.32,51.2,15,43.57,11.43c-5.43-2.53-11.25-1-16.36.4C21.84,13.29,16,15.11,12.82,19.66,9.77,24,9.89,29.88,10.41,35.85c.74,8.39-1.21,8.56-.48,16.95S12.62,61,13.36,69.41s-1.22,8.56-.48,17c.52,6,4.76,10.24,8.52,14,4,3.92,8.43,8,14,8.55,5.27.48,10.32-2.57,15.23-6,6.9-4.83,8-3.23,14.91-8.06s5.78-6.43,12.68-11.27,8-3.22,14.92-8.06C98,72,99.6,66.23,100.94,61.11c1.42-5.38,2.75-11.32.42-16.38-2.22-4.8-7.39-7.65-12.82-10.18C80.91,31,81.73,29.22,74.1,25.66S65.64,23.88,58,20.32,51.2,15,43.57,11.43c-5.43-2.53-11.25-1-16.36.4C21.84,13.29,16,15.11,12.82,19.66,9.77,24,9.89,29.88,10.41,35.85c.74,8.39-1.21,8.56-.48,16.95S12.62,61,13.36,69.41s-1.22,8.56-.48,17c.52,6,4.76,10.24,8.52,14,4,3.92,8.43,8,14,8.55,5.27.48,10.32-2.57,15.23-6,6.9-4.83,8-3.23,14.91-8.06s5.78-6.43,12.68-11.27,8-3.22,14.92-8.06C98,72,99.6,66.23,100.94,61.11c1.42-5.38,2.75-11.32.42-16.38C99.14,39.93,94,37.08,88.54,34.55Z"/><path class="cls-1" d="M88.54,34.55C80.91,31,81.73,29.22,74.1,25.66S65.64,23.88,58,20.32,51.2,15,43.57,11.43c-5.43-2.53-11.25-1-16.36.4C21.84,13.29,16,15.11,12.82,19.66,9.77,24,9.89,29.88,10.41,35.85c.74,8.39-1.21,8.56-.48,16.95S12.62,61,13.36,69.41s-1.22,8.56-.48,17c.52,6,4.76,10.24,8.52,14,4,3.92,8.43,8,14,8.55,5.27.48,10.32-2.57,15.23-6,6.9-4.83,8-3.23,14.91-8.06s5.78-6.43,12.68-11.27,8-3.22,14.92-8.06C98,72,99.6,66.23,100.94,61.11c1.42-5.38,2.75-11.32.42-16.38-2.22-4.8-7.39-7.65-12.82-10.18C80.91,31,81.73,29.22,74.1,25.66S65.64,23.88,58,20.32,51.2,15,43.57,11.43c-5.43-2.53-11.25-1-16.36.4C21.84,13.29,16,15.11,12.82,19.66,9.77,24,9.89,29.88,10.41,35.85c.74,8.39-1.21,8.56-.48,16.95S12.62,61,13.36,69.41s-1.22,8.56-.48,17c.52,6,4.76,10.24,8.52,14,4,3.92,8.43,8,14,8.55,5.27.48,10.32-2.57,15.23-6,6.9-4.83,8-3.23,14.91-8.06s5.78-6.43,12.68-11.27,8-3.22,14.92-8.06C98,72,99.6,66.23,100.94,61.11c1.42-5.38,2.75-11.32.42-16.38C99.14,39.93,94,37.08,88.54,34.55Z"/><path class="cls-2" d="M95.54,66.43,82.47,17.63A23.77,23.77,0,0,0,42.7,7L7,42.7A23.77,23.77,0,0,0,17.63,82.47l48.8,13.07A23.76,23.76,0,0,0,95.54,66.43L82.47,17.63A23.77,23.77,0,0,0,42.7,7L7,42.7A23.77,23.77,0,0,0,17.63,82.47l48.8,13.07A23.76,23.76,0,0,0,95.54,66.43Z"/><path class="cls-3" d="M52.55,29.58c6.06,0,6.77,0,9.17.14a12.55,12.55,0,0,1,4.21.78,7.56,7.56,0,0,1,4.31,4.3A12.63,12.63,0,0,1,71,39c.11,2.39.13,3.11.13,9.17s0,6.78-.13,9.17a12.49,12.49,0,0,1-.78,4.21,7.54,7.54,0,0,1-4.31,4.31,12.55,12.55,0,0,1-4.21.78c-2.4.11-3.11.14-9.17.14s-6.78,0-9.17-.14a12.57,12.57,0,0,1-4.22-.78,7,7,0,0,1-2.61-1.7,7.16,7.16,0,0,1-1.7-2.61,12.49,12.49,0,0,1-.78-4.21c-.11-2.39-.13-3.11-.13-9.17s0-6.78.13-9.17a12.63,12.63,0,0,1,.78-4.22,7.2,7.2,0,0,1,1.7-2.6,7,7,0,0,1,2.61-1.7,12.57,12.57,0,0,1,4.22-.78c2.39-.11,3.11-.14,9.17-.14m0-4.09c-6.17,0-6.94,0-9.36.14a16.63,16.63,0,0,0-5.51,1.06,11.13,11.13,0,0,0-4,2.61,11.25,11.25,0,0,0-2.62,4A16.76,16.76,0,0,0,30,38.83c-.11,2.42-.14,3.2-.14,9.36s0,6.94.14,9.36A16.76,16.76,0,0,0,31,63.06a11.25,11.25,0,0,0,2.62,4,11.13,11.13,0,0,0,4,2.61,16.63,16.63,0,0,0,5.51,1.06c2.42.11,3.19.14,9.36.14s6.93,0,9.35-.14a16.63,16.63,0,0,0,5.51-1.06,11.57,11.57,0,0,0,6.64-6.63,16.74,16.74,0,0,0,1.06-5.51c.11-2.42.13-3.2.13-9.36s0-6.94-.13-9.36a16.74,16.74,0,0,0-1.06-5.51,11.57,11.57,0,0,0-6.64-6.63,16.63,16.63,0,0,0-5.51-1.06c-2.42-.11-3.19-.14-9.35-.14"/><path class="cls-3" d="M52.55,36.54A11.65,11.65,0,1,0,64.2,48.19,11.65,11.65,0,0,0,52.55,36.54m0,19.22a7.57,7.57,0,1,1,7.56-7.57,7.57,7.57,0,0,1-7.56,7.57"/><path class="cls-3" d="M67.39,36.07a2.73,2.73,0,1,1-2.73-2.72,2.73,2.73,0,0,1,2.73,2.72"/></g></g></svg>