<svg xmlns="http://www.w3.org/2000/svg" xmlns:xlink="http://www.w3.org/1999/xlink" viewBox="0 0 103.07 98.27"><defs><style>.cls-1{fill:none;stroke-miterlimit:10;stroke-width:1.42px;stroke:url(#Nueva_muestra_de_degradado_26);}.cls-2{fill:url(#Nueva_muestra_de_degradado_26-2);}.cls-3{fill:#fff;}</style><linearGradient id="Nueva_muestra_de_degradado_26" x1="-43.73" y1="543.72" x2="48.4" y2="543.72" gradientTransform="translate(7.66 -494.04) rotate(-5.01)" gradientUnits="userSpaceOnUse"><stop offset="0" stop-color="#c3271a"/><stop offset="1" stop-color="#91271a"/></linearGradient><linearGradient id="Nueva_muestra_de_degradado_26-2" x1="21.97" y1="91.41" x2="89.96" y2="23.42" gradientTransform="matrix(1, 0, 0, 1, 0, 0)" xlink:href="#Nueva_muestra_de_degradado_26"/></defs><title>youtube</title><g id="Layer_2" data-name="Layer 2"><g id="Layer_1-2" data-name="Layer 1"><path class="cls-1" d="M88.56,24.69c-7.48-3.48-6.67-5.22-14.15-8.71s-8.29-1.75-15.77-5.23S52,5.52,44.49,2c-5.32-2.48-11-1-16,.39-5.27,1.43-11,3.21-14.1,7.67-3,4.23-2.88,10-2.36,15.87.72,8.22-1.19,8.38-.47,16.6s2.63,8,3.35,16.27-1.19,8.39-.47,16.61c.51,5.85,4.67,10,8.35,13.69C26.64,93,31,97,36.46,97.51,41.63,98,46.58,95,51.39,91.62c6.75-4.73,7.85-3.16,14.61-7.89s5.66-6.31,12.42-11,7.86-3.17,14.62-7.9c4.81-3.37,6.35-9.06,7.67-14.07,1.39-5.28,2.69-11.1.41-16-2.18-4.71-7.24-7.5-12.56-10-7.48-3.48-6.67-5.22-14.15-8.71s-8.29-1.75-15.77-5.23S52,5.52,44.49,2c-5.32-2.48-11-1-16,.39-5.27,1.43-11,3.21-14.1,7.67-3,4.23-2.88,10-2.36,15.87.72,8.22-1.19,8.38-.47,16.6s2.63,8,3.35,16.27-1.19,8.39-.47,16.61c.51,5.85,4.67,10,8.35,13.69C26.64,93,31,97,36.46,97.51,41.63,98,46.58,95,51.39,91.62c6.75-4.73,7.85-3.16,14.61-7.89s5.66-6.31,12.42-11,7.86-3.17,14.62-7.9c4.81-3.37,6.35-9.06,7.67-14.07,1.39-5.28,2.69-11.1.41-16C98.94,30,93.88,27.17,88.56,24.69Z" transform="translate(0 0)"/><path class="cls-2" d="M93.62,66.55,80.8,18.73a23.28,23.28,0,0,0-39-10.44l-35,35a23.28,23.28,0,0,0,10.44,39L65.09,95.07A23.29,23.29,0,0,0,93.62,66.55L80.8,18.73a23.28,23.28,0,0,0-39-10.44l-35,35a23.28,23.28,0,0,0,10.44,39L65.09,95.07A23.29,23.29,0,0,0,93.62,66.55Z" transform="translate(0 0)"/><path class="cls-3" d="M72.6,37.69a5.69,5.69,0,0,0-4-4c-3.53-.95-17.71-.95-17.71-.95s-14.19,0-17.72.95a5.69,5.69,0,0,0-4,4c-.95,3.56-.95,11-.95,11s0,7.43.95,11a5.69,5.69,0,0,0,4,4c3.53,1,17.72,1,17.72,1s14.18,0,17.71-1a5.69,5.69,0,0,0,4-4c1-3.56,1-11,1-11S73.55,41.25,72.6,37.69ZM46.24,55.41V41.93l11.85,6.74Z" transform="translate(0 0)"/></g></g></svg>