<svg xmlns="http://www.w3.org/2000/svg" viewBox="0 0 68.42 68.42"><defs><style>.cls-1{fill:#6d6e70;}</style></defs><title>easy</title><g id="Layer_2" data-name="Layer 2"><g id="Layer_1-2" data-name="Layer 1"><path class="cls-1" d="M67.76,29a4.64,4.64,0,0,0-2.66-1.77c-1.15-.27-2.28-.58-3.43-.85a1.1,1.1,0,0,1-.91-.85,22.54,22.54,0,0,0-1.6-4,1.24,1.24,0,0,1,0-1.36c.65-1.06,1.33-2.11,1.91-3.21a4.22,4.22,0,0,0-.51-5,34.44,34.44,0,0,0-3.92-4A4.4,4.4,0,0,0,51,7.52c-.95.55-1.88,1.11-2.8,1.69a1.26,1.26,0,0,1-1.37,0A24.82,24.82,0,0,0,42.8,7.6a1,1,0,0,1-.72-.78c-.27-1.12-.54-2.24-.84-3.36A4.16,4.16,0,0,0,37.6,0H30.92A3.93,3.93,0,0,0,29,.7a4.63,4.63,0,0,0-1.7,2.56c-.27,1.14-.58,2.28-.84,3.43a1.19,1.19,0,0,1-.94,1,19.52,19.52,0,0,0-3.82,1.56,1.21,1.21,0,0,1-1.35,0c-1.06-.65-2.12-1.31-3.22-1.9a4.3,4.3,0,0,0-5.09.53,33.56,33.56,0,0,0-3.8,3.74c-1.78,2-1.87,3.72-.5,6,.54.9,1.07,1.8,1.62,2.69a1.08,1.08,0,0,1,0,1.18A20.23,20.23,0,0,0,7.8,25.37a1.3,1.3,0,0,1-1.06,1,34,34,0,0,0-3.88,1A3.82,3.82,0,0,0,.09,30.82C-.06,33,0,35.26.06,37.48a3.37,3.37,0,0,0,.86,2.06A4.44,4.44,0,0,0,3.4,41.11c1.15.27,2.29.58,3.44.85a1.09,1.09,0,0,1,.86.8A24.26,24.26,0,0,0,9.34,46.7a1.23,1.23,0,0,1,0,1.41c-.68,1.13-1.41,2.22-2,3.39a4.11,4.11,0,0,0,.47,4.64,27.22,27.22,0,0,0,4.52,4.52,4.1,4.1,0,0,0,4.58.45c1.24-.6,2.39-1.37,3.58-2.07a1.06,1.06,0,0,1,1.18,0,18.53,18.53,0,0,0,3.87,1.62,1.26,1.26,0,0,1,1,1,34.34,34.34,0,0,0,1,3.75A3.93,3.93,0,0,0,31,68.36c2.15.11,4.31,0,6.47,0a3.57,3.57,0,0,0,2.42-1.12,4.75,4.75,0,0,0,1.32-2.36c.29-1.11.56-2.24.84-3.36a.89.89,0,0,1,.63-.77A25.9,25.9,0,0,0,47,59a1.11,1.11,0,0,1,1.19.06c.94.58,1.9,1.15,2.86,1.71a4.49,4.49,0,0,0,5.81-.6C58,59.12,59.12,58,60.18,56.84c1.81-2,2-3.83.58-6.14-.51-.85-1-1.72-1.55-2.57a1.24,1.24,0,0,1-.05-1.36,21.5,21.5,0,0,0,1.6-4,1.1,1.1,0,0,1,.9-.85c1.11-.26,2.21-.53,3.3-.83a4.21,4.21,0,0,0,3.46-3.51v-6.8A4,4,0,0,0,67.76,29ZM34.24,53.38A19.22,19.22,0,1,1,53.48,34.13,19.24,19.24,0,0,1,34.24,53.38Z"/><path class="cls-1" d="M34.21,19.22a14.94,14.94,0,1,0,15,15A15,15,0,0,0,34.21,19.22Zm7.91,12.24c-2.82,2.81-5.62,5.63-8.44,8.43a2.09,2.09,0,0,1-3.14,0c-1.38-1.36-2.74-2.72-4.1-4.1a2.13,2.13,0,1,1,3-3c.78.76,1.56,1.52,2.31,2.31.29.31.46.33.77,0q3.26-3.3,6.54-6.56a2.14,2.14,0,0,1,3.1-.08A2.3,2.3,0,0,1,42.78,30,2.24,2.24,0,0,1,42.12,31.46Z"/></g></g></svg>