<svg xmlns="http://www.w3.org/2000/svg" viewBox="0 0 67.34 66.96"><defs><style>.cls-1{fill:#6d6e70;}</style></defs><title>efficient</title><g id="Layer_2" data-name="Layer 2"><g id="Layer_1-2" data-name="Layer 1"><path class="cls-1" d="M27.87,45.14V32.4c0-1.07.13-1.2,1.2-1.2h4.81c.78,0,1,.21,1,1q0,12.92,0,25.82c0,.74-.22,1-1,1H29c-.95,0-1.1-.14-1.1-1.08Z"/><path class="cls-1" d="M44.13,12.64c-.58,0-1.16.07-1.74.08a1.07,1.07,0,0,1-1.2-1,1,1,0,0,1,1.07-1.19c1.85-.13,3.71-.24,5.57-.31A1.1,1.1,0,0,1,49,11.55c-.25,1.79-.52,3.58-.79,5.37a1.11,1.11,0,0,1-1.31,1A1.13,1.13,0,0,1,46,16.6c.09-.73.21-1.46.34-2.33-1.11.93-2.1,1.78-3.12,2.62A131.21,131.21,0,0,1,8.58,37.32c-2.25.92-4.53,1.77-6.83,2.58C1,40.16.47,40,.16,39.49s0-1.38.86-1.7c2.76-.95,5.49-2,8.18-3.12A128.58,128.58,0,0,0,44.26,13.08l.32-.27C44.54,12.45,44.31,12.61,44.13,12.64Z"/><path class="cls-1" d="M21.87,48.75v9c0,1-.13,1.16-1.16,1.16H15.82c-.74,0-1-.21-1-.94q0-9.26,0-18.52c0-.74.21-1,1-1h4.95c.95,0,1.1.14,1.1,1.08Z"/><path class="cls-1" d="M60.89,28.41v9.34a1.58,1.58,0,0,1-1.77,1.17c-.52-.2-1-.44-1.55-.63a.77.77,0,0,1-.47-.55c-.24-.65-.53-1.28-.74-1.94a.56.56,0,0,0-.66-.44c-.58,0-1.35.19-1.68-.1s-.12-1.13-.12-1.73q0-7.22,0-14.42c0-1,.17-1.12,1.13-1.13h4.75c.91,0,1.11.2,1.11,1.1Z"/><path class="cls-1" d="M41,40a1,1,0,0,1-.12-.68V25.78c0-1.08.09-1.17,1.15-1.17h4.81c.85,0,1,.18,1,1,0,4,0,8.07,0,12.11,0,.41-.18.52-.48.7a2.8,2.8,0,0,1-3-.06c-1.16-.64-1.2-.56-2.12.36C41.85,39.15,41.45,39.58,41,40Z"/><path class="cls-1" d="M8.85,52.27c0,1.9,0,3.81,0,5.71,0,.83-.15,1-1,1h-5c-.79,0-1-.19-1-1V46.55c0-.76.23-1,1-1,1.67,0,3.35,0,5,0,.79,0,1,.19,1,1C8.86,48.46,8.85,50.37,8.85,52.27Z"/><path class="cls-1" d="M53.23,12.07c.35-1.3.65-2.52,1-3.71A.7.7,0,0,0,54,7.47C53,6.75,52.11,6,51.19,5.26c-.17-.14-.44-.26-.32-.55s.34-.21.55-.22c1.16-.06,2.32-.14,3.48-.16a.79.79,0,0,0,.86-.6c.37-1.09.81-2.17,1.22-3.25.08-.2.11-.49.42-.48s.32.3.4.5c.43,1.1.86,2.2,1.25,3.31a.66.66,0,0,0,.7.51c1.19,0,2.37.11,3.56.17.22,0,.5,0,.6.24s-.17.4-.34.54c-.88.72-1.75,1.45-2.66,2.13a.81.81,0,0,0-.36,1c.33,1,.6,2.09.87,3.15.06.24.3.54,0,.77s-.52-.08-.74-.22c-.92-.58-1.84-1.16-2.73-1.79a.86.86,0,0,0-1.17,0c-.95.66-1.93,1.27-2.9,1.91-.16.1-.31.21-.52.11A.29.29,0,0,1,53.23,12.07Z"/><path class="cls-1" d="M44.13,12.64c.2-.1.41-.23.6,0,0,.06,0,.16-.15.17C44.5,12.56,44.26,12.74,44.13,12.64Z"/><path class="cls-1" d="M66.61,50c-.41-.09-.78-.31-1.17-.43a.93.93,0,0,1-.7-.76,8.63,8.63,0,0,0-1-2.49A1.13,1.13,0,0,1,63.65,45c.3-.55.76-1.19.66-1.71s-.78-.92-1.22-1.36-.9-1.19-1.46-1.34-1.27.44-1.9.73a.88.88,0,0,1-.95-.06,8.83,8.83,0,0,0-2.56-1.06,1.12,1.12,0,0,1-.9-.83,3.6,3.6,0,0,0-.74-1.68c-.43-.35-1.2-.1-1.82-.1s-1.54-.27-2,.12-.57,1.17-.79,1.8a.88.88,0,0,1-.72.64,8.18,8.18,0,0,0-2.43,1,1.36,1.36,0,0,1-1.46.06c-1.63-.75-1.64-.73-2.91.54-.49.49-1.23.92-1.39,1.51s.45,1.3.74,2a.87.87,0,0,1-.07.89,8.4,8.4,0,0,0-1,2.49,1.3,1.3,0,0,1-1,1C38,50.23,38,50.25,38,52c0,.72-.21,1.59.12,2.1s1.2.6,1.85.83a.86.86,0,0,1,.6.67,9.24,9.24,0,0,0,1.08,2.62,1,1,0,0,1,0,1.15c-.29.57-.77,1.24-.67,1.76s.82,1,1.27,1.42.87,1.15,1.41,1.28,1.22-.44,1.84-.69l.06,0a.81.81,0,0,1,1,0A8.4,8.4,0,0,0,49,64.23a1.23,1.23,0,0,1,1,.92c.63,1.73.65,1.73,2.47,1.72.71,0,1.59.28,2.1-.12s.58-1.22.82-1.87a.76.76,0,0,1,.61-.56,9.36,9.36,0,0,0,2.75-1.14.94.94,0,0,1,1,0c.56.27,1.14.52,1.71.77.23,0,.32-.15.44-.28.62-.6,1.19-1.26,1.84-1.8a1,1,0,0,0,.28-1.52,2.17,2.17,0,0,1,0-2.83,1.18,1.18,0,0,0,.25-.57,2.84,2.84,0,0,1,2.55-2.54c.4-.08.49-.32.47-.7,0-.9,0-1.81,0-2.71A.84.84,0,0,0,66.61,50ZM52.69,59.13a6.91,6.91,0,1,1,6.9-6.94A6.93,6.93,0,0,1,52.69,59.13Z"/></g></g></svg>