<svg xmlns="http://www.w3.org/2000/svg" viewBox="0 0 92.46 60.8"><defs><style>.cls-1{fill:#6d6e70;}</style></defs><title>measured</title><g id="Layer_2" data-name="Layer 2"><g id="Layer_1-2" data-name="Layer 1"><path class="cls-1" d="M92.46,60.34a1,1,0,0,1-.92.42H73.14a2.05,2.05,0,0,1-.31-.07,35.8,35.8,0,0,0,1-9.72,31.89,31.89,0,0,0-.47-4.57c-.22-1.26-.22-1.27,1-1.62,4.73-1.35,9.46-2.68,14.17-4.07.85-.25,1.21-.09,1.48.79a57.37,57.37,0,0,1,2.25,11.37c0,.21-.13.5.19.62v.72c-.12.11-.08.26-.09.39v.31c0,.14,0,.28.09.39V56a8.22,8.22,0,0,0,0,2.71Z"/><path class="cls-1" d="M92.46,58.72a4.33,4.33,0,0,1,0-2.71Z"/><path class="cls-1" d="M92.31,54.55c0-.14-.06-.3.15-.35v.36C92.41,54.65,92.36,54.65,92.31,54.55Z"/><path class="cls-1" d="M92.31,54.55h.15v.37c0,.08-.1.07-.15,0Z"/><path class="cls-1" d="M92.31,54.92h.15v.36A.29.29,0,0,1,92.31,54.92Z"/><path class="cls-1" d="M72.26,16.43a1.09,1.09,0,0,1,.62.34A50,50,0,0,1,87.57,35.21c.33.68.07.95-.55,1.2q-6.84,2.73-13.67,5.5c-.67.27-1,.11-1.2-.56a34.44,34.44,0,0,0-8.43-13.77.73.73,0,0,1,0-1.16q4-4.79,7.93-9.58C71.79,16.63,72,16.41,72.26,16.43Z"/><path class="cls-1" d="M40.6,15.4c.13,2.47.2,2.3-1.49,2.35A34.1,34.1,0,0,0,23.2,22.08c-.75.41-1.14.35-1.6-.37-1.05-1.65-2.16-3.25-3.28-4.85-.43-.6-.36-1,.24-1.4A44.33,44.33,0,0,1,39.19,7.32c.62-.08.88.14.92.77C40.27,10.76,40.46,13.43,40.6,15.4Z"/><path class="cls-1" d="M19.13,24.41a1.06,1.06,0,0,1-.5.6A39,39,0,0,0,7.05,39.21a.81.81,0,0,1-1.21.48c-.92-.37-1.84-.74-2.78-1-.77-.26-.82-.67-.57-1.37A45.62,45.62,0,0,1,9.81,23.9a52.12,52.12,0,0,1,3.92-4.36c.57-.57,1-.64,1.51,0,1.13,1.41,2.33,2.76,3.5,4.13C18.91,23.92,19.13,24.1,19.13,24.41Z"/><path class="cls-1" d="M60.66,24.77A4.19,4.19,0,0,1,59.5,24C58,22.93,58,22.92,58.43,21.1c.81-3.47,1.62-6.94,2.4-10.42.12-.54.25-.62.76-.41a52.25,52.25,0,0,1,6,2.91c.59.33.65.68.29,1.23-2.17,3.28-4.32,6.57-6.48,9.85C61.21,24.51,61.06,24.79,60.66,24.77Z"/><path class="cls-1" d="M0,52a48,48,0,0,1,.88-8.86c.14-.74.44-1,1.17-.73s1.56.42,2.35.62c.6.14.86.44.65,1.09A42.1,42.1,0,0,0,3,59.94c0,.43,0,.86-.58.79S.91,61.21.7,60.09A44.4,44.4,0,0,1,0,53.29C0,52.87,0,52.45,0,52Z"/><path class="cls-1" d="M52,7.61,46.93,18.08c-.12.24-.26.41-.56.26l-.08,0C44,18,44,18,44.07,15.71c.09-2.61.24-5.22.35-7.83,0-.46.08-.87.66-.87A41.25,41.25,0,0,1,52,7.61Z"/><path class="cls-1" d="M60.05.3A1.21,1.21,0,0,0,58.78.09c-.47.17-.64.6-.84,1Q54.57,8,51.18,14.92,42.83,32,34.45,49.1A7.52,7.52,0,0,0,41,60.24c3.76-.09,6.47-2.48,7.37-6.43Q53.49,31.65,58.61,9.5l1.8-7.81A1.28,1.28,0,0,0,60.05.3ZM41.21,56.23a3.64,3.64,0,1,1,3.69-3.62A3.64,3.64,0,0,1,41.21,56.23Z"/></g></g></svg>