<svg xmlns="http://www.w3.org/2000/svg" viewBox="0 0 66.6 69.78"><defs><style>.cls-1,.cls-2{fill:#6d6e70;}.cls-2{stroke:#fff;stroke-miterlimit:10;stroke-width:0.43px;}</style></defs><title>variation</title><g id="Layer_2" data-name="Layer 2"><g id="Layer_1-2" data-name="Layer 1"><path class="cls-1" d="M19.53,29.89c-1.21-.88-2.43-1.74-4.06-1.52a5.57,5.57,0,0,0-.79.17,12.22,12.22,0,0,1-3.25.17l-3.1,0c-1.64.23-3.56-.61-4.76,1.27A46.17,46.17,0,0,0,2.42,42.08c.09,7.52.1,15.05,0,22.58a5.78,5.78,0,0,0,2.28,5.12H7.43a5.47,5.47,0,0,0,2.34-5.09c-.11-7.81-.06-15.62,0-23.44,0-.68-.53-1.93.67-2s.75,1.24.75,1.94c0,7.81.09,15.62,0,23.43a5.59,5.59,0,0,0,2.31,5.11h2.75c2.1-1.35,2.22-3.39,2.31-5.64.42-11.2-1.32-22.48,1.35-33.58C19.93,30.38,19.66,30.12,19.53,29.89Z"/><path class="cls-1" d="M56.45,51.34c-2.74,0-5.48,0-8.22,0-1.18,0-1.61-.37-1.59-1.56q.07-6.66,0-13.33c0-1.18.46-1.47,1.61-1.55,5.88-.39,6-.42,6,5.56,0,2,.76,2.08,2.44,2.09S59,42.28,59,40.42c0-6,.06-6,6-5.5,1.21.09,1.56.48,1.55,1.61,0,4.45,0,8.89,0,13.33,0,1.26-.54,1.52-1.65,1.5C62.11,51.31,59.28,51.34,56.45,51.34Z"/><path class="cls-1" d="M35.09,51.34c-2.74,0-5.48-.05-8.22,0-1.2,0-1.56-.38-1.55-1.55q.09-6.66,0-13.33c0-1.18.42-1.68,1.59-1.53h.28c5.66-.24,5.75-.24,5.69,5.29,0,2,.6,2.36,2.49,2.36s2.26-.48,2.25-2.24c0-5.94,0-5.9,6.08-5.44,1.23.09,1.54.5,1.53,1.63,0,4.35-.08,8.7,0,13.05,0,1.55-.62,1.8-1.94,1.76C40.58,51.29,37.84,51.34,35.09,51.34Z"/><path class="cls-1" d="M45.22,69.08l-19.67.18c-.07-5-.12-10-.21-14.93,0-1.06.39-1.51,1.45-1.39a.82.82,0,0,0,.27,0c5.76-.31,5.83-.31,5.83,5.43,0,1.81.5,2.27,2.36,2.19,1.62-.07,2.63-.11,2.35-2.07a13.37,13.37,0,0,1,0-1.9c0-3.65,0-3.65,3.78-3.65s3.86,0,3.86,3.9Q45.23,63,45.22,69.08Z"/><path class="cls-1" d="M66.13,52.94c.64,5.05.13,10.13.29,15.19,0,1.07-.65,1.11-1.44,1.11-5.57,0-11.15,0-16.72,0-1,0-1.5-.29-1.46-1.38.19-5-.33-10,.28-14.93h.82c2,.05,4.48-.62,5.82.32s.5,3.68.5,5.61,1,1.73,2.27,1.65S58.88,61,59,58.88s-1.42-4.68.9-5.77C61.65,52.31,64.05,52.94,66.13,52.94Z"/><path class="cls-1" d="M1.39,29A2.43,2.43,0,0,1,.08,26.28c1-3.76,2.18-7.46,4.78-10.51a5.22,5.22,0,0,1,5.82-1.84c2.89.79,5.87,1.24,8.81,1.81,1,.19,2.09.18,2,1.64a7.09,7.09,0,0,1-3.65,5.45c-2.88.41-5.81.34-8.68.77-.9,0-1.94.59-2.56-.59a1.06,1.06,0,0,1,.25-.82c-.37,0-.16.33-.3.46.77,2.26,2.41.57,3.64.8,3.06-.39,6.19,0,9.18-1a9.14,9.14,0,0,1,3.13-.22,2.42,2.42,0,0,1,2.13,1.33,4.06,4.06,0,0,1-.38,3.69,2.37,2.37,0,0,1-.66.6c-1.78,1-3.74.73-5.63.66a18.42,18.42,0,0,0-3,.19c-2.2.48-4.47-.08-6.67.47C6,29.05,3.7,29.39,1.39,29Z"/><path class="cls-1" d="M23.93,27.21c0-.18,0-.35,0-.52,1.45-.77.59-2,.54-3a2,2,0,0,0-1.65-.81c-1.06-.58-2.19-.16-3.28-.26a1,1,0,0,1-1.11-.39l3.09-4.86a13.08,13.08,0,0,0,1.32-1.67,2,2,0,0,1,2.93-1c2.6,1,5.24,2,7.88,2.92,1.42.5,1.52,1.16.77,2.41-1.34,2.22-3.08,4.22-3.92,6.72.15,1.43-.7,2.37-1.64,3.26-2,2.51-4.14,1.09-6.28.36-1-.35-2-.65-3.05-1-1.22-1-.58-1.28.54-1.33C21.41,28,22.83,28.34,23.93,27.21Z"/><path class="cls-1" d="M16.69,13.21a6.6,6.6,0,0,1-6.8-6.4A6.69,6.69,0,0,1,16.6,0a6.76,6.76,0,0,1,6.68,6.58A6.65,6.65,0,0,1,16.69,13.21Z"/><path class="cls-1" d="M28.85,30c.06-1.33,1-2.23,1.64-3.26,2.1-1,4.2.14,6.31,0a45.23,45.23,0,0,1,6,.42,2.12,2.12,0,0,1,2.11,2.09c.11,1.1-.36,2.29-1.45,2.28C38.56,31.57,33.53,32.24,28.85,30Z"/><path class="cls-1" d="M11.55,29.38a7.73,7.73,0,0,1,3.6-.41C14,29.82,12.76,29.29,11.55,29.38Z"/><path class="cls-2" d="M6.68,20s-2.46,4,2.5,3.63l12.74-1s4.2,1.74.52,5.39-.37.05-.37.05-16,2.06-20.68,1"/></g></g></svg>