<svg id="Layer_3" data-name="Layer 3" xmlns="http://www.w3.org/2000/svg" viewBox="0 0 298.79 209.12"><defs><style>.cls-1{fill:#808184;}</style></defs><title>lead-scoring</title><path class="cls-1" d="M.6,182.65c1.49-3.32,1-7,1.63-10.42.93-5.25,1.94-10.48,3.16-15.67.92-3.92,2.37-4.79,6.25-3.74q19.64,5.28,39.27,10.61c3.67,1,4.45,2.37,3.52,6.21a106.26,106.26,0,0,0-3,27.7c.11,4.14-.83,5.07-5.05,5.27-13.58.65-27.16,1.26-40.74,2a5.24,5.24,0,0,1-5-2.67v-1.17a4.48,4.48,0,0,0,0-3.5v-7c.49-.5.23-1.13.3-1.7,0-.36,0-.71,0-1.07s.1-1-.3-1.32Z" transform="translate(-0.6 -45.44)"/><path class="cls-1" d="M.6,197.25a2.59,2.59,0,0,1,0,3.5Z" transform="translate(-0.6 -45.44)"/><path class="cls-1" d="M1.12,188.47c0,.65.22,1.35-.52,1.77v-1.75c.17-.26.34-.26.52,0" transform="translate(-0.6 -45.44)"/><path class="cls-1" d="M.6,186.16c.64.18.56.67.5,1.15-.16.28-.32.28-.5,0Z" transform="translate(-0.6 -45.44)"/><path class="cls-1" d="M.6,187.32l.5,0c0,.39,0,.78,0,1.16l-.52,0Z" transform="translate(-0.6 -45.44)"/><path class="cls-1" d="M115.92,220.41c1-2.68-.75-5.14-2.12-7.69L85.05,158.81a27,27,0,0,1-1.29-2.61,3.32,3.32,0,0,1,1-3.95,3.15,3.15,0,0,1,3.75-.67c.86.44,1.73.87,2.56,1.36q26.71,15.74,53.39,31.53a14.57,14.57,0,0,0,7,2.18c16.85.77,29.92,13.09,32.19,30.14,2.07,15.62-8.22,31.28-23.78,36.18-21.6,6.81-43.55-9.19-44-32.57" transform="translate(-0.6 -45.44)"/><path class="cls-1" d="M139.62,91.62c.07,3.41-1,4.57-4.49,5.1a94.46,94.46,0,0,0-21.83,6c-3,1.21-5.81,2.67-8.73,4s-4.49.78-6-2.06q-9.88-18.46-19.64-37c-1.4-2.65-.8-4.43,1.81-5.79a154.3,154.3,0,0,1,48.49-15.64c2.89-.44,4.37.87,4.86,4.4,1.09,7.7,2.08,15.4,3.11,23.1.83,6.16,1.67,12.32,2.43,17.93" transform="translate(-0.6 -45.44)"/><path class="cls-1" d="M299.37,191.48c0,2.24.08,5.45,0,8.65s-1.57,4.57-4.8,4.42q-20.81-1-41.63-2c-3.2-.16-4.37-1.34-4.28-4.56a107.18,107.18,0,0,0-4.16-32.5c-.94-3.3-.18-4.67,3.05-5.69q19.8-6.28,39.63-12.45c3.28-1,4.83-.06,5.82,3.32a154.73,154.73,0,0,1,6.37,40.79" transform="translate(-0.6 -45.44)"/><path class="cls-1" d="M163.89,45.44a157.21,157.21,0,0,1,35.84,7.84c5,1.72,9.71,3.9,14.5,6,2.56,1.12,3.3,3,2.11,5.46q-9.2,19.29-18.56,38.51c-1.3,2.66-3.47,2.77-5.92,1.62a97.61,97.61,0,0,0-23.75-7.63c-2.48-.46-5-.68-7.5-1.07-3.25-.51-4.4-1.87-4.09-5.15q2-20.9,4.06-41.79c.25-2.52,1.71-3.81,3.31-3.77" transform="translate(-0.6 -45.44)"/><path class="cls-1" d="M237.9,145.34c-2-.08-3-1.53-4-3a97.77,97.77,0,0,0-13.5-17.13c-2.41-2.4-5-4.64-7.47-7s-2.75-3.83-.61-6.48q13.1-16.21,26.29-32.36c2-2.5,4-2.54,6.49-.42a155.25,155.25,0,0,1,32.5,37.5c2,3.19,1.69,4.77-1.55,6.71q-17.6,10.56-35.22,21.06a6.71,6.71,0,0,1-3,1.12" transform="translate(-0.6 -45.44)"/><path class="cls-1" d="M53.94,81.07a4.22,4.22,0,0,1,3.16,1.84q13.78,15.65,27.54,31.32c2.07,2.37,2,4.19-.29,6.32a107,107,0,0,0-20.52,25.58c-1.72,3-3.28,3.34-6.29,1.7Q39.39,138,21.28,128c-3.08-1.69-3.54-3.48-1.85-6.45A154.33,154.33,0,0,1,50.64,82.66a4.53,4.53,0,0,1,3.3-1.58" transform="translate(-0.6 -45.44)"/></svg>