<svg id="Layer_4" data-name="Layer 4" xmlns="http://www.w3.org/2000/svg" viewBox="0 0 228.17 298.95"><defs><style>.cls-1{fill:#6d6e70;}</style></defs><title>lead-conversion</title><path class="cls-1" d="M123.62,299.47c0-28.21,0-56.42.06-84.63a6.61,6.61,0,0,0-2.77-5.81Q79.41,175.71,38,142.26c-.45-.36-.86-.76-1.57-1.38h227c-1.06.88-1.87,1.57-2.71,2.24Q219.38,176.44,178,209.73a4.7,4.7,0,0,0-1.92,4.17c.06,21.79,0,43.58.1,65.37,0,2.13-.64,3-2.64,3.61-15.47,5.06-30.9,10.24-46.33,15.42-.85.29-1.93.19-2.46,1.18Z" transform="translate(-35.91 -0.53)"/><path class="cls-1" d="M223.45.53c2.1.63,4.26,1.11,6.29,1.91a26.4,26.4,0,0,1,16.4,26.66c-1.07,12-9.78,21.3-22.25,23.7,1.64,1.17,3.6.89,5.36,1.28A43.84,43.84,0,0,1,263.72,96.6c0,2.9,1,6.83-.43,8.45-1.68,1.85-5.66.55-8.63.56-13.91.06-27.82,0-41.73.07-2,0-2.69-.42-3.1-2.57a59.25,59.25,0,0,0-19.71-34.47c-1.74-1.52-1.65-2.2-.06-3.64A43.69,43.69,0,0,1,213.53,53.6a3.79,3.79,0,0,0,2.42-.81c-12.4-2.55-20.62-11.13-22.15-23.12-1.38-10.79,4.88-21.88,15-26.68,2.45-1.16,5.12-1.55,7.63-2.46Z" transform="translate(-35.91 -0.53)"/><path class="cls-1" d="M83.34.53c2.31.88,4.79,1.2,7.08,2.22A26.47,26.47,0,0,1,106,29.25,26.52,26.52,0,0,1,85.78,52.41a13,13,0,0,1-1.73.16c-.75.52-1.49.68-1.74.42.53.3,1.82.16,2.93.58,9,.59,19.8,6.07,26.22,13.4A62.63,62.63,0,0,0,95.35,87a57.29,57.29,0,0,0-5.53,16.78c-.24,1.53-.8,1.87-2.21,1.87q-24.94-.06-49.87,0c-.86,0-1.66.18-1.72-1.23-.55-11.7.88-22.89,8-32.69,7.33-10.06,17.05-16.22,29.41-18.12.75-.12,1.49-.33,3-.67C67.22,51.17,60.68,46.69,56.61,39A26.2,26.2,0,0,1,75.07,1c.45-.08,1,.05,1.25-.5Z" transform="translate(-35.91 -0.53)"/><path class="cls-1" d="M145.89,70.37c-16.92-3.46-23.46-17.6-22.11-28.92a26.28,26.28,0,0,1,52.31.69c1.12,13.66-8.26,25.59-22.31,28.15,1.71,1.15,3.61.89,5.32,1.28a43.83,43.83,0,0,1,34.56,42.73c0,2.14-.16,4.3.05,6.42s-.67,2.46-2.6,2.46q-41.29-.1-82.57,0c-2.11,0-2.51-.59-2.5-2.58,0-6.52-.14-13.07,2.07-19.32,6-16.94,17.75-27.14,35.54-30.21a12.53,12.53,0,0,0,1.42-.3,4.3,4.3,0,0,0,.81-.41" transform="translate(-35.91 -0.53)"/><path class="cls-1" d="M85.24,53.57c-2.09.13-2.09.13-3.74-.84A3.75,3.75,0,0,1,84,52.56l1.19,1" transform="translate(-35.91 -0.53)"/></svg>