<svg id="Layer_1" data-name="Layer 1" xmlns="http://www.w3.org/2000/svg" viewBox="0 0 280 299.89"><defs><style>.cls-1{fill:#6d6e70;}</style></defs><title>lead-generated</title><path class="cls-1" d="M107.6,132.58H98.4a4.68,4.68,0,0,1-4.67-3C85.6,110.3,78.91,90.63,80.65,69.32c2.19-26.84,13.82-48.38,37.88-61.64C146-7.46,180.27.57,199.58,26.13c14,18.5,18.5,39.44,15.37,62.19-1.93,14-6.63,27.19-12.66,39.94-1.45,3.06-3.49,4.48-6.93,4.37-5.33-.18-10.67,0-16-.06-5.52-.08-7.38-3.32-4.75-8.19,6.75-12.5,12.13-25.53,14.2-39.68,2.19-15-.58-29-9.48-41.44-16.06-22.44-47.07-22.48-63.2-.1-10.25,14.23-12.19,30.15-8.59,47a112.76,112.76,0,0,0,13.24,34.08c3,5.13-.25,8.75-4.87,8.43-2.76-.19-5.53,0-8.3,0" transform="translate(-10 -0.05)"/><path class="cls-1" d="M148.6,258c3.17-6.2,6.29-12,9.12-18,1.56-3.26,3.84-4.39,7.33-4.14,22.12,1.55,38.92,16.33,42.76,38.06,1.28,7.24.68,14.63.51,22-.06,2.54-1.69,3.9-4.24,4-.69,0-1.38,0-2.08,0H94.91c-5.48,0-6.69-1.13-6.61-6.56.12-8.19-.63-16.42,1.66-24.5a45.68,45.68,0,0,1,42.71-33c3.06-.06,5.24,1,6.65,3.92,2.92,6,6,11.91,9.27,18.23" transform="translate(-10 -0.05)"/><path class="cls-1" d="M217.14,299.74c1.48-19.41,1.55-38.39-12.87-54.12a36.64,36.64,0,0,1,17.93-4.11,4.44,4.44,0,0,1,4.1,2.86c2.67,5.49,5.43,10.93,8.36,16.82,2.68-5.32,5.38-10.24,7.65-15.35,1.53-3.45,3.81-4.55,7.43-4.39a42.15,42.15,0,0,1,40.16,40.32c.17,4.35.1,8.71,0,13.07,0,3.42-1.56,5.08-4.81,5.08q-33.65.06-67.29,0a2.29,2.29,0,0,1-.69-.18" transform="translate(-10 -0.05)"/><path class="cls-1" d="M79.83,299.95H16.38c-4.92,0-6.38-1.43-6.36-6.33,0-7.41-.43-14.84,1.72-22.11a42.29,42.29,0,0,1,38.53-30.06c3.24-.12,5.32.82,6.73,4,2.31,5.22,5.07,10.24,7.83,15.73,2.73-5.43,5.4-10.46,7.79-15.63,1.39-3,3.38-4.26,6.72-4.07a38.75,38.75,0,0,1,13.27,2.68C77.9,260.77,76.94,281,79.83,299.95" transform="translate(-10 -0.05)"/><path class="cls-1" d="M118.23,202.19a29.88,29.88,0,1,1,29.95,30,30,30,0,0,1-29.95-30" transform="translate(-10 -0.05)"/><path class="cls-1" d="M235.25,183.82a27.66,27.66,0,1,1-27.71,27.34,27.51,27.51,0,0,1,27.71-27.34" transform="translate(-10 -0.05)"/><path class="cls-1" d="M37.24,211.26a27.6,27.6,0,1,1,27.58,27.88,27.53,27.53,0,0,1-27.58-27.88" transform="translate(-10 -0.05)"/><path class="cls-1" d="M183.95,148.25a4.62,4.62,0,0,1,0-9.24,4.62,4.62,0,1,1,0,9.24" transform="translate(-10 -0.05)"/><path class="cls-1" d="M103.31,148.78a4.63,4.63,0,0,1,4.32,4.74,4.61,4.61,0,0,1-9.22-.3,4.63,4.63,0,0,1,4.9-4.44" transform="translate(-10 -0.05)"/><path class="cls-1" d="M87.76,172.64a4.53,4.53,0,1,1-4.5-4.61,4.68,4.68,0,0,1,4.5,4.61" transform="translate(-10 -0.05)"/><path class="cls-1" d="M218.12,172.67a4.62,4.62,0,1,1-4.57-4.62,4.89,4.89,0,0,1,4.57,4.62" transform="translate(-10 -0.05)"/><path class="cls-1" d="M117.3,143.56a4.6,4.6,0,1,1-9.2,0,4.6,4.6,0,0,1,9.2,0" transform="translate(-10 -0.05)"/><path class="cls-1" d="M97.48,163.06a4.58,4.58,0,0,1-4.56,4.5,4.57,4.57,0,1,1,4.56-4.5" transform="translate(-10 -0.05)"/><path class="cls-1" d="M198.25,153.28a4.56,4.56,0,1,1-4.51-4.5,4.59,4.59,0,0,1,4.51,4.5" transform="translate(-10 -0.05)"/><path class="cls-1" d="M208.38,163.11a4.59,4.59,0,0,1-4.6,4.44,4.57,4.57,0,1,1,4.6-4.44" transform="translate(-10 -0.05)"/></svg>