<svg id="Layer_2" data-name="Layer 2" xmlns="http://www.w3.org/2000/svg" viewBox="0 0 272.24 296.95"><defs><style>.cls-1{fill:#e6e7e8;}.cls-2{fill:#6d6e70;}.cls-3{fill:#404041;}.cls-4{fill:#ebe5f1;}.cls-5{fill:#d2cae3;}.cls-6{fill:#faf2f2;}</style></defs><title>lead-cpl</title><path class="cls-1" d="M285.44,56.65c1,.92.59,2.13.6,3.21q0,107.1,0,214.2c0,13.08-11.34,24.4-24.44,24.41q-86.86,0-173.72,0a24.87,24.87,0,0,1-24.5-24.64q0-9.27,0-18.55c1.62-1.59,3.69-1.06,5.58-1.06q61.07,0,122.13,0c13.61,0,27.21,0,40.81,0s22.23-8.74,22.24-22.26c0-23.08-.41-46.18.16-69.25.36-14.78-9.65-24.29-24-24.19-53.69.38-107.39.16-161.08.13-2,0-4.15.44-6-.88a5.74,5.74,0,0,1-.78-3.54q0-14.9,0-29.81c0-1.32-.06-2.69,1-3.77q0-37.1,0-74.2A24.85,24.85,0,0,1,88,1.61q69.73,0,139.46,0c1.18,0,2.49-.47,3.52.59a16.88,16.88,0,0,1,.38,4.29q0,22.71,0,45.42c0,4.19.15,4.34,4.34,4.34q22.72,0,45.43,0a17.1,17.1,0,0,1,4.29.38" transform="translate(-13.88 -1.53)"/><path class="cls-2" d="M63.45,137.63q84.57,0,169.14,0c10.44,0,18.62,5.86,21.56,15.29a24.25,24.25,0,0,1,1,7.31c0,24.12,0,48.23,0,72.35,0,13.28-9.29,22.54-22.6,22.54q-82.72,0-165.43,0c-1.24,0-2.47.06-3.71.1-5.45,0-10.91,0-16.36-.13A33.45,33.45,0,0,1,14,222c-.16-32.94-.05-65.9,0-98.84a8.48,8.48,0,0,1,.1-.92c1.48.23,1.43,1.58,1.81,2.56,2.85,7.51,8.84,11.83,17,11.94,8.73.11,17.47,0,26.2,0,1.52,0,3.11-.22,4.44.85" transform="translate(-13.88 -1.53)"/><path class="cls-3" d="M63.45,137.63q-15.29,0-30.59,0c-9.17,0-16.13-5.46-18.35-14.34a6.81,6.81,0,0,0-.49-1.08c-.71-13.5,7-21.68,20.37-21.68,9.66,0,19.32,0,29,.07q0,18.5.08,37" transform="translate(-13.88 -1.53)"/><path class="cls-4" d="M285.44,56.65c-.91,1-2.12.6-3.2.6-16.15,0-32.31,0-48.47.08-2.73,0-3.47-.72-3.45-3.45.13-16.16.06-32.31.08-48.47,0-1.08-.41-2.29.6-3.2.55.46,1.15.87,1.65,1.37Q258.38,29.29,284.08,55c.5.5.91,1.1,1.37,1.64" transform="translate(-13.88 -1.53)"/><path class="cls-5" d="M149.91,82H101.38c-2.49,0-4.65-.6-6.06-2.91a5.88,5.88,0,0,1,.07-6.68c1.44-2.26,3.63-2.79,6.12-2.79q22.56,0,45.13,0h51.93c2.5,0,4.65.6,6.06,2.91a5.87,5.87,0,0,1-.07,6.68c-1.44,2.26-3.63,2.8-6.12,2.8q-24.26,0-48.53,0" transform="translate(-13.88 -1.53)"/><path class="cls-5" d="M150,106.75H101.16c-2.51,0-4.6-.75-5.95-3.1A5.86,5.86,0,0,1,95.53,97c1.4-2.08,3.53-2.61,5.92-2.6,9.17,0,18.34,0,27.51,0H198.5c2.62,0,4.83.64,6.26,3.11a5.86,5.86,0,0,1-.32,6.68c-1.48,2.19-3.74,2.61-6.23,2.61q-24.1,0-48.22,0" transform="translate(-13.88 -1.53)"/><path class="cls-5" d="M125.17,57.27c-8.14,0-16.27.08-24.41,0-5.35-.07-8.06-5-5.36-9.55a5.7,5.7,0,0,1,5.19-2.77q24.73-.06,49.44,0a6.15,6.15,0,1,1-.14,12.3c-8.24.08-16.48,0-24.72,0" transform="translate(-13.88 -1.53)"/><path class="cls-6" d="M112.87,196.31c0-8.86,0-17.72,0-26.57,0-5,2.31-7.31,7.4-7.32,6.7,0,13.39,0,20.09,0,12.36.09,22,9.54,22,21.58s-9.55,21.55-21.88,21.68c-4.33,0-8.65.08-13,0-1.72,0-2.32.43-2.28,2.23.11,5,.06,10.09,0,15.14,0,4.53-2.35,7.33-6.1,7.39s-6.25-2.81-6.26-7.53q0-13.29,0-26.58" transform="translate(-13.88 -1.53)"/><path class="cls-6" d="M91.34,162.44c1.31,0,2.35-.08,3.38,0a6.15,6.15,0,0,1,0,12.27c-2.66.23-5.33,0-8,.55a21.62,21.62,0,0,0,4.12,42.78c1.34,0,2.69-.06,4,.07a6.17,6.17,0,0,1,5.63,6,6.1,6.1,0,0,1-5.59,6.3c-19,1.47-35.07-11.37-37.54-30.32-2.22-17,10.78-34.4,27.83-37.07a29.13,29.13,0,0,1,6.16-.55" transform="translate(-13.88 -1.53)"/><path class="cls-6" d="M174.72,196.44q0-13.28,0-26.56c0-4.69,2.46-7.55,6.32-7.46s6,2.87,6,7.44c0,15.14.06,30.27-.06,45.4,0,2.37.65,2.91,2.92,2.86,6.9-.15,13.8-.07,20.7,0,4.53,0,7.32,2.36,7.35,6.12s-2.78,6.23-7.24,6.24q-14.36,0-28.72,0c-5,0-7.29-2.33-7.3-7.43,0-8.85,0-17.7,0-26.56" transform="translate(-13.88 -1.53)"/><path class="cls-2" d="M125.24,184.17c0-2.16.14-4.33,0-6.47s.31-3.12,2.78-3c4.11.23,8.23,0,12.34.08,5.52.07,9.58,4,9.65,9.15s-4.06,9.31-9.73,9.38c-4.32.05-8.64-.06-13,0-1.65,0-2.15-.5-2.07-2.11.12-2.36,0-4.73,0-7.09" transform="translate(-13.88 -1.53)"/></svg>