<svg xmlns="http://www.w3.org/2000/svg" viewBox="0 0 42.35 40.59"><defs><style>.cls-1{fill:#fff;}</style></defs><title>form</title><g id="Layer_2" data-name="Layer 2"><g id="Layer_1-2" data-name="Layer 1"><path class="cls-1" d="M21.17,0H38.56a3.56,3.56,0,0,1,3.62,2.44,3.93,3.93,0,0,1,.17,1.23q0,14.85,0,29.71a3.5,3.5,0,0,1-3.68,3.68H33.59a.86.86,0,0,1-.87-.56.83.83,0,0,1,.2-1,1.09,1.09,0,0,1,.83-.26h4.79a1.82,1.82,0,0,0,2.06-2.06c0-7.68,0-15.36,0-23,0-.38-.08-.49-.49-.49-1.83,0-3.67,0-5.51,0a1,1,0,0,1-1-.46.88.88,0,0,1,.85-1.32c1,0,2.09,0,3.13,0,.87,0,1.73,0,2.6,0,.3,0,.38-.08.37-.37,0-1.24,0-2.48,0-3.72a1.85,1.85,0,0,0-2.13-2.1H3.79a1.83,1.83,0,0,0-2,2.06c0,1.22,0,2.45,0,3.67,0,.38.1.46.46.46H29.59a2.64,2.64,0,0,1,.49,0,.88.88,0,0,1,0,1.75,4,4,0,0,1-.49,0q-13.66,0-27.33,0c-.4,0-.54.09-.51.51,0,.69,0,1.37,0,2.06a.86.86,0,0,1-.89,1A.84.84,0,0,1,0,12.28c0-3,0-5.91,0-8.87A3.44,3.44,0,0,1,3.29,0C3.52,0,3.74,0,4,0Z"/><path class="cls-1" d="M0,25.34c0-2.81,0-5.61,0-8.42,0-.63.3-1,.81-1a.84.84,0,0,1,.92.77,4.18,4.18,0,0,1,0,.5c0,5.31,0,10.63,0,15.94A2,2,0,0,0,4,35.31c4.12-.05,8.24,0,12.36,0h.31c.63,0,1,.37,1,.9a.92.92,0,0,1-1,.87h-13A3.49,3.49,0,0,1,0,33.49C0,30.78,0,28.06,0,25.34Z"/><path class="cls-1" d="M14.09,14.11H20.9a1.45,1.45,0,0,1,.62.07.84.84,0,0,1,.53.81.83.83,0,0,1-.57.82,1.36,1.36,0,0,1-.53.07H7.07A.88.88,0,0,1,6.19,15a.86.86,0,0,1,.92-.84h7Z"/><path class="cls-1" d="M10.62,20.3c1.12,0,2.23,0,3.35,0,.63,0,1,.34,1,.87a.89.89,0,0,1-1,.89q-3.37,0-6.76,0c-.66,0-1-.34-1-.9s.39-.86,1-.86C8.35,20.29,9.48,20.3,10.62,20.3Z"/><path class="cls-1" d="M33.52,31.3a1.12,1.12,0,0,0-.59-.75l-11.09-7.3c-.9-.6-1.55-.28-1.62.81-.14,2.24-.27,4.47-.4,6.71s-.26,4.38-.4,6.57a1,1,0,0,0,.38,1,.94.94,0,0,0,1.05,0c1-.5,2-1,2.95-1.48.29-.16.39-.09.52.18.49,1,1,2,1.5,3a.87.87,0,0,0,1.29.46c1.24-.55,2.48-1.09,3.72-1.65a.91.91,0,0,0,.49-1.42c-.5-1-1-2-1.52-3-.17-.31-.19-.47.19-.64,1-.45,2-.95,2.92-1.44A.94.94,0,0,0,33.52,31.3Zm-4.58,1-.8.39a.91.91,0,0,0-.46,1.37c.51,1,1,2.06,1.55,3.07.17.32.11.45-.22.57a15.88,15.88,0,0,0-1.63.73c-.25.12-.35.08-.47-.17-.49-1-1-2-1.5-3A.92.92,0,0,0,24,34.79l-2.68,1.34c.21-3.6.42-7.12.64-10.73l9,5.92Z"/></g></g></svg>