<svg xmlns="http://www.w3.org/2000/svg" viewBox="0 0 49.09 43.08"><defs><style>.cls-1{fill:#fff;}</style></defs><title>package</title><g id="Layer_2" data-name="Layer 2"><g id="Layer_1-2" data-name="Layer 1"><path class="cls-1" d="M46.69,28.49c-.29-.07-.38-.18-.38-.47q0-8.93,0-17.83c0-.32.06-.47.42-.44a6.89,6.89,0,0,0,.91,0c.88,0,1.13-.26,1.13-1.15V1.23c0-1-.21-1.23-1.23-1.23H12.26a.79.79,0,0,0-.87.86q0,4,0,8a.8.8,0,0,0,.85.89,8.83,8.83,0,0,0,1.15,0c.32,0,.43.06.43.41q0,7.71,0,15.43c0,.34-.09.43-.42.42a10.74,10.74,0,0,0-4,.65,13.8,13.8,0,0,0-2,1v-3.8c0-.86-.25-1.11-1.11-1.11-1.7,0-3.39,0-5.08,0A1.15,1.15,0,0,0,0,23.3V42.58a1.3,1.3,0,0,0,1.19.5c1.53,0,3.06,0,4.6,0S7.31,43,7.31,41.56V38.19a3.56,3.56,0,0,1,.35.18,10.2,10.2,0,0,0,5.1,1.44H26.42a8.78,8.78,0,0,0,2.28-.27l9.37-2.49c2.91-.78,5.82-1.54,8.72-2.35a3.23,3.23,0,0,0-.1-6.22Zm-41.35,13c-1.1,0-2.2,0-3.3,0-.34,0-.42-.08-.42-.41,0-2.72,0-5.43,0-8.15s0-5.36,0-8c0-.36.07-.48.46-.47,1.09,0,2.17,0,3.26,0,.27,0,.35.08.35.35q0,8.19,0,16.39C5.69,41.38,5.61,41.45,5.34,41.45ZM13.43,7.71c-.33,0-.43-.08-.43-.39C13,5.54,13,3.77,13,2c0-.34.14-.37.44-.37H46.65c.38,0,.51.07.51.45,0,1.75,0,3.49,0,5.24,0,.3-.07.4-.42.4ZM44.71,28.14c0,.35-.13.45-.43.53Q40,29.81,35.65,31c-.28.08-.41.06-.55-.22a2.92,2.92,0,0,0-1.88-1.53L21.78,26.17A9.48,9.48,0,0,0,19.4,26c-1.19,0-2.37,0-3.55,0-.34,0-.42-.08-.42-.42q0-7.71,0-15.43c0-.35.11-.41.43-.41H30.09c4.72,0,9.43,0,14.14,0,.36,0,.48.08.47.46Q44.68,19.18,44.71,28.14Zm1.42,5.07c-5.2,1.4-10.41,2.76-15.59,4.2a19.63,19.63,0,0,1-6.14.79c-1.58-.06-3.16,0-4.74,0H13a8.92,8.92,0,0,1-5.4-1.8.66.66,0,0,1-.3-.59c0-1.93,0-3.87,0-5.8a.58.58,0,0,1,.25-.52,8.7,8.7,0,0,1,5.19-1.84c2.54,0,5.08,0,7.62,0a14,14,0,0,1,3.44.75l8.73,2.33A1.67,1.67,0,0,1,33.86,32a1.52,1.52,0,0,1-.52,1.55,1.58,1.58,0,0,1-1.56.33c-2.22-.6-4.43-1.19-6.65-1.77-.63-.17-1.05,0-1.18.52s.13.87.77,1c2.29.61,4.58,1.26,6.88,1.82A3.16,3.16,0,0,0,35.44,33a.51.51,0,0,1,.44-.45c3.13-.82,6.25-1.67,9.37-2.5a1.63,1.63,0,1,1,.88,3.12Z"/><path class="cls-1" d="M30.12,13H34c.63,0,1,.28,1,.78s-.36.84-1,.84H26.18c-.64,0-1-.33-1-.86s.34-.76.92-.76Z"/></g></g></svg>