<svg xmlns="http://www.w3.org/2000/svg" viewBox="0 0 45.29 45.28"><defs><style>.cls-1{fill:#fff;}</style></defs><title>payment</title><g id="Layer_2" data-name="Layer 2"><g id="Layer_1-2" data-name="Layer 1"><path class="cls-1" d="M45.28,25.72A2.87,2.87,0,0,0,43.77,23a.83.83,0,0,1-.45-.82c0-1.8,0-3.6,0-5.39a4.27,4.27,0,0,0-3.47-4.45,1.08,1.08,0,0,1-.68-.57q-2.66-4.66-5.33-9.32A4.08,4.08,0,0,0,30.39,0h-1a4.1,4.1,0,0,0-2,.69L18.61,5.83C15.05,7.9,11.5,10,7.94,12a1.53,1.53,0,0,1-.8.22H3.92a3.81,3.81,0,0,0-2.47.93A3.79,3.79,0,0,0,0,16V41.52a3.74,3.74,0,0,0,.62,2,4,4,0,0,0,3.46,1.77c2.84,0,5.68,0,8.52,0H39.06a4,4,0,0,0,3.41-1.68,4.64,4.64,0,0,0,.86-2.86c0-1.77,0-3.54,0-5.3a.9.9,0,0,1,.47-.86,3,3,0,0,0,1.5-2.68C45.25,29.84,45.26,27.78,45.28,25.72ZM34.39,8.64c.28-.17.41-.18.59.14.6,1.09,1.23,2.17,1.85,3.25.13.22.16.32-.17.32H28.27l-.08,0c0-.15.2-.17.3-.23C30.46,10.93,32.43,9.8,34.39,8.64ZM33,5.27a8.07,8.07,0,0,0,.59,1c.16.25.14.37-.14.53q-2.87,1.65-5.71,3.32l-3.42,2a1.43,1.43,0,0,1-.75.2H20.06l0-.1L25,9.37C27.43,8,29.89,6.53,32.33,5.09,32.68,4.88,32.81,5,33,5.27ZM12.18,12.09,28.74,2.45a2.06,2.06,0,0,1,2.72.29c.2.23.25.35-.08.54l-15.3,8.9a.93.93,0,0,1-.49.17h-3.7C12,12.17,12.09,12.15,12.18,12.09ZM41.11,40.83a2.09,2.09,0,0,1-2.33,2.35H4.38a2.11,2.11,0,0,1-2.33-2.32V16.71A2.1,2.1,0,0,1,4.38,14.4H38.87A2,2,0,0,1,41,15.91a2.67,2.67,0,0,1,.08.74c0,1.87,0,3.74,0,5.61,0,.29-.08.37-.36.36-1.92,0-3.83,0-5.74,0a6.15,6.15,0,0,0-.67,12.28c2.1.15,4.21,0,6.31.05.36,0,.47.07.46.45C41.1,37.21,41.12,39,41.11,40.83Zm.72-7.94H38.3v0c-1.2,0-2.39.05-3.58,0a4,4,0,0,1-3.86-3.94,4.06,4.06,0,0,1,3.25-4.15,4.79,4.79,0,0,1,1.14-.1q3.28,0,6.57,0c1,0,1.36.38,1.36,1.35v5.52C43.18,32.52,42.81,32.89,41.83,32.89Z"/><path class="cls-1" d="M35,26.73a2.06,2.06,0,0,1,2.07,2,2.06,2.06,0,1,1-2.07-2Z"/></g></g></svg>