<svg xmlns="http://www.w3.org/2000/svg" viewBox="0 0 45.98 45.99"><defs><style>.cls-1{fill:#fff;}.cls-2{fill:none;stroke:#fff;stroke-miterlimit:10;stroke-width:1.42px;}</style></defs><title>person</title><g id="Layer_2" data-name="Layer 2"><g id="Layer_1-2" data-name="Layer 1"><path class="cls-1" d="M23,0A23,23,0,1,0,46,23.11,23,23,0,0,0,23,0ZM33.86,41.26a21.19,21.19,0,0,1-22.55-.51.85.85,0,0,1-.43-.79,11.35,11.35,0,0,1,3.53-9.14,10.83,10.83,0,0,1,7.37-3,14.09,14.09,0,0,1,6.34.82,11,11,0,0,1,7,10.41C35.14,40.51,35.12,40.51,33.86,41.26ZM15.35,18.43A7.64,7.64,0,1,1,23,26.07,7.62,7.62,0,0,1,15.35,18.43ZM36.87,39c-.35-6.15-3.41-10.28-9.21-12.45a9.26,9.26,0,0,0,4.67-7.51,9,9,0,0,0-2.73-7.23A9.36,9.36,0,1,0,18.36,26.59a13,13,0,0,0-6.67,4.72,12.81,12.81,0,0,0-2.53,7.76A21.25,21.25,0,1,1,43.49,17.28,21.13,21.13,0,0,1,36.87,39Z"/><circle class="cls-2" cx="22.88" cy="18.44" r="8.47"/></g></g></svg>