<svg xmlns="http://www.w3.org/2000/svg" viewBox="0 0 52.51 52.53"><defs><style>.cls-1{fill:#fff;}</style></defs><title>product</title><g id="Layer_2" data-name="Layer 2"><g id="Layer_1-2" data-name="Layer 1"><path class="cls-1" d="M34.32,7.67c-2.4-2.38-4.78-4.78-7.18-7.16-.66-.67-1.1-.68-1.75,0L18.17,7.7a1,1,0,0,0-.38,1.2A1.07,1.07,0,0,0,19,9.51c1.1,0,2.21,0,3.32,0,.42,0,.52.13.51.53,0,1,0,2,0,3s0,1.94,0,2.91S23.11,17.1,24,17.1h4.56c.89,0,1.2-.32,1.2-1.22,0-2,0-3.92,0-5.87,0-.38.07-.52.48-.51,1.11,0,2.22,0,3.32,0,.53,0,1-.09,1.21-.64S34.66,8,34.32,7.67ZM29,7.61c-.86,0-1.19.32-1.19,1.18,0,2,0,3.91,0,5.87,0,.44-.11.58-.56.56a16.85,16.85,0,0,0-2,0c-.45,0-.61-.09-.6-.58,0-1.9,0-3.79,0-5.69,0-1.06-.28-1.34-1.33-1.34H20.94l4-4c.36-.36.74-.72,1.09-1.09.17-.19.29-.25.51,0,1.61,1.63,3.24,3.25,4.86,4.87a1.42,1.42,0,0,1,.1.21Z"/><path class="cls-1" d="M52.29,33.24q-2.46-3.68-4.89-7.35a1.21,1.21,0,0,0-1.1-.57H6.2a1.16,1.16,0,0,0-1.06.53L.22,33.24A1,1,0,0,0,.11,34.3a1,1,0,0,0,1,.52c1.12,0,2.25,0,3.38,0,.46,0,.58.11.57.57q0,7.86,0,15.73c0,1.17.25,1.42,1.43,1.42H46c1.18,0,1.43-.25,1.43-1.43q0-7.86,0-15.72c0-.47.13-.59.59-.57,1.12,0,2.25,0,3.38,0a1,1,0,0,0,.87-1.58ZM2.71,32.92C4,31,5.18,29.23,6.37,27.43c.14-.22.31-.21.5-.21H32c.1.18-.06.27-.12.37-1.1,1.66-2.21,3.31-3.31,5a.66.66,0,0,1-.61.36ZM32.45,50.64h-25c-.35,0-.48-.07-.48-.46q0-7.47,0-15c0-.51.28-.41.56-.41,6.92,0,13.84,0,20.77,0a1.7,1.7,0,0,0,1.64-.89c.93-1.48,1.93-2.92,3-4.53V45.68c0,1.5,0,3,0,4.51C32.92,50.57,32.8,50.64,32.45,50.64Zm12.6,0c-3.26,0-6.52,0-9.78,0-.34,0-.48,0-.48-.44q0-10.23,0-20.45c0-.06,0-.11,0-.28C35.92,31.09,37,32.61,38,34.14a1.37,1.37,0,0,0,1.27.69c2,0,3.91,0,5.87,0,.39,0,.49.1.49.49q0,7.41,0,14.82C45.58,50.55,45.45,50.64,45.05,50.64ZM39.78,32.92a.5.5,0,0,1-.5-.21c-1.19-1.81-2.4-3.6-3.6-5.41.18-.13.34-.07.49-.08h9.36c.22,0,.44,0,.62.21,1.18,1.81,2.39,3.61,3.65,5.49Z"/></g></g></svg>