<svg xmlns="http://www.w3.org/2000/svg" viewBox="0 0 58.39 58.37"><defs><style>.cls-1{fill:#fff;}</style></defs><title>report</title><g id="Layer_2" data-name="Layer 2"><g id="Layer_1-2" data-name="Layer 1"><path class="cls-1" d="M14.25,12.44c-2,0-4,0-6.05,0-.39,0-.54,0-.53-.49,0-1.4,0-1.4,1.37-1.4,3.75,0,7.49,0,11.24,0,.51,0,.6.15.58.62,0,1.28,0,1.28-1.31,1.28Z"/><path class="cls-1" d="M14.23,16.21c-2,0-4,0-6.06,0-.43,0-.51-.13-.5-.52,0-1.38,0-1.38,1.34-1.38,3.76,0,7.53,0,11.29,0,.48,0,.57.14.56.58,0,1.31,0,1.32-1.34,1.32Z"/><path class="cls-1" d="M14.28,18.09H20.4c.34,0,.46.05.46.44,0,1.45,0,1.45-1.44,1.45-3.74,0-7.48,0-11.23,0-.39,0-.53-.06-.52-.5,0-1.39,0-1.39,1.38-1.39Z"/><path class="cls-1" d="M14.27,21.85c2,0,4.08,0,6.12,0,.39,0,.47.11.47.49,0,1.4,0,1.4-1.42,1.4-3.75,0-7.49,0-11.24,0-.45,0-.54-.12-.53-.55,0-1.35,0-1.35,1.37-1.35Z"/><path class="cls-1" d="M5.8,11.52c0,.92,0,.92-.91.92s-1,0-1-1,0-.91.91-.91S5.8,10.56,5.8,11.52Z"/><path class="cls-1" d="M4.9,14.32c.9,0,.9,0,.9.88s0,1-1,1-.89,0-.89-.88S3.91,14.32,4.9,14.32Z"/><path class="cls-1" d="M3.91,19c0-.89,0-.89.88-.89s1,0,1,1,0,.89-.88.89S3.91,20,3.91,19Z"/><path class="cls-1" d="M4.9,21.85c.9,0,.9,0,.9.93s0,.95-1,.95-.9,0-.9-.92S3.91,21.85,4.9,21.85Z"/><path class="cls-1" d="M9.46,29.61c0-.33-.08-.43-.42-.42H4.22c-.33,0-.43.08-.42.42,0,1.43,0,2.86,0,4.29s0,2.86,0,4.29c0,.33.08.43.42.42H9c.33,0,.42-.08.42-.41Q9.44,33.89,9.46,29.61ZM7.57,35.37c0,.33-.08.42-.42.42-1.47,0-1.47,0-1.47-1.42v-.94C5.68,32,5.68,32,7.09,32c.38,0,.5.09.48.48C7.54,33.45,7.55,34.41,7.57,35.37Z"/><path class="cls-1" d="M53.09,31.89a.91.91,0,0,1-.38-.78q0-8.76,0-17.53c0-.33,0-.48.44-.57a6.59,6.59,0,0,0,5.2-5.92A6.59,6.59,0,0,0,45.22,6c0,.49-.17.59-.63.59q-11,0-21.94,0c-7.35,0-14.7,0-22,0-.5,0-.6.12-.6.61Q0,25.42,0,43.65c0,.49.11.61.6.61q13.32,0,26.64,0c1,0,1,0,1.14,1A15,15,0,0,0,46.14,58.07c6-1.25,10.1-5,11.68-10.93S57.65,36.05,53.09,31.89Zm-1.32-30a4.71,4.71,0,1,1-4.7,4.7A4.72,4.72,0,0,1,51.77,1.89ZM28.47,40.81c0,.14,0,.27-.07.41-.08.36.1.86-.17,1.07s-.8.07-1.2.07c-8.18,0-16.35,0-24.53,0-.54,0-.62-.16-.62-.65q0-16.32,0-32.65c0-.54.15-.61.64-.61H44.87c.44,0,.66.09.8.53a3.86,3.86,0,0,0,.55,1.09c.23.33.24.51-.07.81-1.71,1.67-3.39,3.37-5.08,5.07a.54.54,0,0,1-.7.18,2.2,2.2,0,0,0-1.67,0A.53.53,0,0,1,38,16c-.2-.21-.41-.42-.62-.62-.55-.52-1-.94-.72-1.91a2.5,2.5,0,0,0-1.43-2.72,2.73,2.73,0,0,0-3.08.26,2.61,2.61,0,0,0-.95,2.94.77.77,0,0,1-.26.9Q29,16.73,27.08,18.68a.8.8,0,0,1-.95.27A2.7,2.7,0,0,0,23,20.17a2.81,2.81,0,0,0,3.46,4.09,2.84,2.84,0,0,0,1.75-2.86s0-.09,0-.12c-.42-.73,0-1.15.51-1.62,1.23-1.18,2.42-2.4,3.62-3.61a.57.57,0,0,1,.71-.19,2.17,2.17,0,0,0,1.66,0,.55.55,0,0,1,.71.18,7.36,7.36,0,0,0,.62.63c.56.51,1,.95.72,1.91a2.52,2.52,0,0,0,1.42,2.72A2.73,2.73,0,0,0,41.27,21a2.62,2.62,0,0,0,1-2.93.76.76,0,0,1,.24-.9q2.54-2.51,5-5c.22-.23.36-.31.66-.09a4.75,4.75,0,0,0,2.09.89c.51.07.57.32.57.77q0,7.93,0,15.88v.56c-7-3.39-13.23-2.36-18.82,3.07V30c0-.77,0-.77-.77-.77-1.47,0-2.94,0-4.41,0-.39,0-.48.11-.48.49q0,5.18,0,10.35c0,.39.11.5.49.48s.9,0,1.35,0C28.47,40.46,28.53,40.57,28.47,40.81Zm12-22a.94.94,0,1,1-.9-1A1,1,0,0,1,40.48,18.85ZM34.83,13.2a.94.94,0,0,1-1.88,0,1,1,0,0,1,1-1A1,1,0,0,1,34.83,13.2Zm-8.47,8.48a.94.94,0,1,1-.9-1A.95.95,0,0,1,26.36,21.68Zm17,14.09a7.53,7.53,0,1,1-7.59,7.5A7.55,7.55,0,0,1,43.36,35.77ZM28.44,38.59c-.32,0-.19-.25-.19-.39,0-1.13,0-2.27,0-3.41s0-2.23,0-3.34c0-.32.09-.39.39-.39,1.5,0,1.5,0,1.5,1.45v.94a8.33,8.33,0,0,1-1,4.89C28.94,38.73,28.67,38.57,28.44,38.59Zm2.82,10a13.17,13.17,0,0,1,8.18-17.9A13.67,13.67,0,0,1,42,30.21c.3,0,.42,0,.4.34,0,.51,0,1,0,1.53s0,.94,0,1.41-.08.47-.44.52a9.37,9.37,0,0,0-8,9.5,8.23,8.23,0,0,0,.68,3.25c.14.33.08.47-.22.63-.84.46-1.68.94-2.49,1.44C31.53,49,31.42,49,31.26,48.62ZM54,51a13.13,13.13,0,0,1-8.22,5.21,12.67,12.67,0,0,1-2.46.25,13.22,13.22,0,0,1-10.56-5.33c-.28-.36-.29-.54.15-.77.81-.42,1.6-.89,2.39-1.37.3-.19.45-.16.69.13A9.16,9.16,0,0,0,43.6,52.7a9.07,9.07,0,0,0,7-3.52c.29-.35.45-.34.79-.12.8.49,1.62,1,2.44,1.41C54.14,50.63,54.18,50.75,54,51Zm1.35-2.36c-.14.3-.23.37-.53.18-.83-.51-1.68-1-2.54-1.46-.3-.16-.35-.3-.22-.63a9.37,9.37,0,0,0-6.9-12.69c-.89-.19-.89-.19-.89-1.11,0-.76,0-1.53,0-2.29,0-.45.13-.48.52-.45A13.24,13.24,0,0,1,56.13,40.29a14.75,14.75,0,0,1,.35,3.44A13.08,13.08,0,0,1,55.32,48.67Z"/><path class="cls-1" d="M18.05,29.61c0-.33-.08-.43-.42-.42H12.81c-.33,0-.42.08-.42.42,0,1.43,0,2.86,0,4.29s0,2.86,0,4.29c0,.33.08.43.42.42h4.82c.33,0,.42-.08.42-.41Q18,33.89,18.05,29.61Zm-1.89,5.76c0,.33-.08.42-.41.42-1.48,0-1.48,0-1.48-1.42v-.94c0-1.43,0-1.41,1.41-1.42.38,0,.5.09.49.48C16.14,33.45,16.14,34.41,16.16,35.37Z"/></g></g></svg>